<svg width="45" height="45" viewBox="0 0 45 45" fill="none" xmlns="http://www.w3.org/2000/svg">
<g id="ph:images-light">
<path id="Vector" d="M37.9688 7.38281H12.6562C12.0036 7.38281 11.3776 7.64209 10.9161 8.1036C10.4546 8.56512 10.1953 9.19107 10.1953 9.84375V13.0078H7.03125C6.37857 13.0078 5.75262 13.2671 5.2911 13.7286C4.82959 14.1901 4.57031 14.8161 4.57031 15.4688V35.1562C4.57031 35.8089 4.82959 36.4349 5.2911 36.8964C5.75262 37.3579 6.37857 37.6172 7.03125 37.6172H32.3438C32.9964 37.6172 33.6224 37.3579 34.0839 36.8964C34.5454 36.4349 34.8047 35.8089 34.8047 35.1562V31.9922H37.9688C38.6214 31.9922 39.2474 31.7329 39.7089 31.2714C40.1704 30.8099 40.4297 30.1839 40.4297 29.5312V9.84375C40.4297 9.19107 40.1704 8.56512 39.7089 8.1036C39.2474 7.64209 38.6214 7.38281 37.9688 7.38281ZM12.3047 9.84375C12.3047 9.75051 12.3417 9.66109 12.4077 9.59516C12.4736 9.52923 12.563 9.49219 12.6562 9.49219H37.9688C38.062 9.49219 38.1514 9.52923 38.2173 9.59516C38.2833 9.66109 38.3203 9.75051 38.3203 9.84375V21.7213L35.9525 19.3535C35.724 19.125 35.4527 18.9437 35.1541 18.82C34.8555 18.6963 34.5355 18.6326 34.2123 18.6326C33.8891 18.6326 33.5691 18.6963 33.2705 18.82C32.9719 18.9437 32.7006 19.125 32.4721 19.3535L28.7068 23.117L20.7246 15.1348C20.4961 14.9062 20.2248 14.7249 19.9262 14.6012C19.6276 14.4775 19.3076 14.4139 18.9844 14.4139C18.6612 14.4139 18.3411 14.4775 18.0426 14.6012C17.744 14.7249 17.4727 14.9062 17.2441 15.1348L12.3047 20.0742V9.84375ZM32.6953 35.1562C32.6953 35.2495 32.6583 35.3389 32.5923 35.4048C32.5264 35.4708 32.437 35.5078 32.3438 35.5078H7.03125C6.93801 35.5078 6.84859 35.4708 6.78266 35.4048C6.71673 35.3389 6.67969 35.2495 6.67969 35.1562V15.4688C6.67969 15.3755 6.71673 15.2861 6.78266 15.2202C6.84859 15.1542 6.93801 15.1172 7.03125 15.1172H10.1953V29.5312C10.1953 30.1839 10.4546 30.8099 10.9161 31.2714C11.3776 31.7329 12.0036 31.9922 12.6562 31.9922H32.6953V35.1562ZM37.9688 29.8828H12.6562C12.563 29.8828 12.4736 29.8458 12.4077 29.7798C12.3417 29.7139 12.3047 29.6245 12.3047 29.5312V23.0572L18.7348 16.6271C18.7674 16.5945 18.8062 16.5685 18.8489 16.5508C18.8915 16.5331 18.9373 16.524 18.9835 16.524C19.0297 16.524 19.0754 16.5331 19.1181 16.5508C19.1608 16.5685 19.1996 16.5945 19.2322 16.6271L27.9615 25.3564C28.0595 25.4545 28.1758 25.5323 28.3038 25.5854C28.4319 25.6385 28.5691 25.6658 28.7077 25.6658C28.8463 25.6658 28.9836 25.6385 29.1116 25.5854C29.2396 25.5323 29.356 25.4545 29.4539 25.3564L33.9627 20.8459C33.9953 20.8132 34.0341 20.7873 34.0768 20.7696C34.1195 20.7519 34.1652 20.7428 34.2114 20.7428C34.2576 20.7428 34.3034 20.7519 34.3461 20.7696C34.3887 20.7873 34.4275 20.8132 34.4602 20.8459L38.3273 24.7131V29.5312C38.3274 29.578 38.318 29.6243 38.2999 29.6674C38.2818 29.7106 38.2553 29.7496 38.2219 29.7824C38.1885 29.8151 38.1489 29.8408 38.1054 29.8581C38.062 29.8753 38.0155 29.8837 37.9688 29.8828ZM28.4766 14.7656C28.4766 14.418 28.5797 14.0781 28.7728 13.789C28.966 13.5 29.2405 13.2747 29.5617 13.1416C29.8829 13.0086 30.2363 12.9738 30.5773 13.0416C30.9183 13.1094 31.2315 13.2768 31.4773 13.5227C31.7232 13.7685 31.8906 14.0817 31.9584 14.4227C32.0262 14.7637 31.9914 15.1171 31.8584 15.4383C31.7253 15.7595 31.5 16.034 31.211 16.2272C30.9219 16.4203 30.582 16.5234 30.2344 16.5234C29.7682 16.5234 29.3211 16.3382 28.9914 16.0086C28.6618 15.6789 28.4766 15.2318 28.4766 14.7656Z" fill="#303030"/>
</g>
</svg>
