<svg width="20" height="20" viewBox="0 0 20 20" fill="none" xmlns="http://www.w3.org/2000/svg">
<rect x="0.75" y="0.75" width="18" height="18" rx="9" stroke="#323232" stroke-width="1.5"/>
<mask id="path-2-inside-1_3196_999" fill="white">
<path d="M7.8596 12.8436L4.46073 9.35474C4.35886 9.25375 4.22243 9.19787 4.08082 9.19913C3.93921 9.2004 3.80374 9.2587 3.7036 9.36149C3.60346 9.46429 3.54666 9.60334 3.54543 9.7487C3.5442 9.89407 3.59864 10.0341 3.69702 10.1387L7.47774 14.0196C7.57903 14.1235 7.71638 14.1819 7.8596 14.1819C8.00281 14.1819 8.14016 14.1235 8.24145 14.0196L15.8029 6.2578C15.9013 6.15324 15.9557 6.0132 15.9545 5.86783C15.9532 5.72247 15.8964 5.58341 15.7963 5.48062C15.6962 5.37783 15.5607 5.31952 15.4191 5.31826C15.2775 5.317 15.141 5.37288 15.0392 5.47387L7.8596 12.8436Z"/>
</mask>
<path d="M7.8596 12.8436L4.46073 9.35474C4.35886 9.25375 4.22243 9.19787 4.08082 9.19913C3.93921 9.2004 3.80374 9.2587 3.7036 9.36149C3.60346 9.46429 3.54666 9.60334 3.54543 9.7487C3.5442 9.89407 3.59864 10.0341 3.69702 10.1387L7.47774 14.0196C7.57903 14.1235 7.71638 14.1819 7.8596 14.1819C8.00281 14.1819 8.14016 14.1235 8.24145 14.0196L15.8029 6.2578C15.9013 6.15324 15.9557 6.0132 15.9545 5.86783C15.9532 5.72247 15.8964 5.58341 15.7963 5.48062C15.6962 5.37783 15.5607 5.31952 15.4191 5.31826C15.2775 5.317 15.141 5.37288 15.0392 5.47387L7.8596 12.8436Z" fill="#303030"/>
<path d="M7.8596 12.8436L6.42702 14.2393L7.8596 15.7098L9.29217 14.2393L7.8596 12.8436ZM4.46073 9.35474L5.89331 7.95913L5.88118 7.94668L5.86883 7.93445L4.46073 9.35474ZM3.69702 10.1387L2.24043 11.5092L2.25233 11.5218L2.26445 11.5343L3.69702 10.1387ZM7.47774 14.0196L6.04516 15.4152L6.04538 15.4154L7.47774 14.0196ZM8.24145 14.0196L9.67382 15.4154L9.67403 15.4152L8.24145 14.0196ZM15.8029 6.2578L17.2355 7.65341L17.2476 7.64097L17.2595 7.62832L15.8029 6.2578ZM15.0392 5.47387L13.6311 4.05357L13.6187 4.06581L13.6066 4.07826L15.0392 5.47387ZM9.29217 11.448L5.89331 7.95913L3.02815 10.7503L6.42702 14.2393L9.29217 11.448ZM5.86883 7.93445C5.3935 7.46319 4.74588 7.19312 4.06298 7.19921L4.09866 11.1991C3.69899 11.2026 3.32423 11.0443 3.05262 10.775L5.86883 7.93445ZM4.06298 7.19921C3.38014 7.2053 2.73773 7.48681 2.27102 7.96589L5.13618 10.7571C4.86975 11.0306 4.49828 11.1955 4.09866 11.1991L4.06298 7.19921ZM2.27102 7.96589C1.80597 8.44326 1.55103 9.07837 1.5455 9.73177L5.54536 9.76563C5.54229 10.1283 5.40095 10.4853 5.13618 10.7571L2.27102 7.96589ZM1.5455 9.73177C1.53997 10.3851 1.78408 11.0242 2.24043 11.5092L5.15362 8.76816C5.4132 9.04404 5.54843 9.403 5.54536 9.76563L1.5455 9.73177ZM2.26445 11.5343L6.04516 15.4152L8.91032 12.6239L5.1296 8.74307L2.26445 11.5343ZM6.04538 15.4154C6.51745 15.8998 7.16894 16.1819 7.8596 16.1819V12.1819C8.26382 12.1819 8.6406 12.3472 8.91011 12.6237L6.04538 15.4154ZM7.8596 16.1819C8.55025 16.1819 9.20174 15.8998 9.67382 15.4154L6.80908 12.6237C7.07859 12.3472 7.45537 12.1819 7.8596 12.1819V16.1819ZM9.67403 15.4152L17.2355 7.65341L14.3703 4.8622L6.80887 12.6239L9.67403 15.4152ZM17.2595 7.62832C17.7158 7.14331 17.9599 6.50426 17.9544 5.8509L13.9546 5.88476C13.9515 5.52213 14.0867 5.16317 14.3463 4.88728L17.2595 7.62832ZM17.9544 5.8509C17.9489 5.1975 17.6939 4.56238 17.2289 4.08501L14.3637 6.87623C14.099 6.60444 13.9576 6.24743 13.9546 5.88476L17.9544 5.8509ZM17.2289 4.08501C16.7622 3.60594 16.1198 3.32443 15.4369 3.31834L15.4013 7.31818C15.0016 7.31461 14.6302 7.14971 14.3637 6.87623L17.2289 4.08501ZM15.4369 3.31834C14.754 3.31225 14.1064 3.58232 13.6311 4.05357L16.4473 6.89416C16.1757 7.16343 15.8009 7.32174 15.4013 7.31818L15.4369 3.31834ZM13.6066 4.07826L6.42702 11.448L9.29217 14.2393L16.4718 6.86947L13.6066 4.07826Z" fill="black" mask="url(#path-2-inside-1_3196_999)"/>
</svg>
