<svg width="19" height="21" viewBox="0 0 19 21" fill="none" xmlns="http://www.w3.org/2000/svg">
<path id="Vector" d="M15.9 7.33333L15.004 16.1979C14.8685 17.5416 14.8013 18.2129 14.492 18.7207C14.2207 19.1676 13.8217 19.525 13.3453 19.7477C12.8045 20 12.124 20 10.7587 20H8.24133C6.87707 20 6.19547 20 5.65467 19.7467C5.17792 19.5241 4.77852 19.1667 4.50693 18.7196C4.19973 18.2129 4.13147 17.5416 3.99493 16.1979L3.1 7.33333M11.1 14.1944V8.91667M7.9 14.1944V8.91667M1.5 4.69444H6.42267M6.42267 4.69444L6.8344 1.874C6.95387 1.361 7.3848 1 7.87973 1H11.1203C11.6152 1 12.0451 1.361 12.1656 1.874L12.5773 4.69444M6.42267 4.69444H12.5773M12.5773 4.69444H17.5" stroke="black" stroke-width="1.5" stroke-linecap="round" stroke-linejoin="round"/>
</svg>
