<svg width="59" height="58" viewBox="0 0 59 58" fill="none" xmlns="http://www.w3.org/2000/svg">
<path d="M29.5658 45.625C28.2839 45.625 27.0545 46.1254 26.1481 47.0162C25.2416 47.907 24.7324 49.1152 24.7324 50.375C24.7324 51.6348 25.2416 52.843 26.1481 53.7338C27.0545 54.6246 28.2839 55.125 29.5658 55.125C30.8476 55.125 32.077 54.6246 32.9834 53.7338C33.8899 52.843 34.3991 51.6348 34.3991 50.375C34.3991 49.1152 33.8899 47.907 32.9834 47.0162C32.077 46.1254 30.8476 45.625 29.5658 45.625ZM15.0658 2.875C13.7839 2.875 12.5545 3.37545 11.6481 4.26624C10.7416 5.15704 10.2324 6.36522 10.2324 7.625C10.2324 8.88478 10.7416 10.093 11.6481 10.9838C12.5545 11.8746 13.7839 12.375 15.0658 12.375C16.3476 12.375 17.577 11.8746 18.4834 10.9838C19.3899 10.093 19.8991 8.88478 19.8991 7.625C19.8991 6.36522 19.3899 5.15704 18.4834 4.26624C17.577 3.37545 16.3476 2.875 15.0658 2.875ZM15.0658 17.125C13.7839 17.125 12.5545 17.6254 11.6481 18.5162C10.7416 19.407 10.2324 20.6152 10.2324 21.875C10.2324 23.1348 10.7416 24.343 11.6481 25.2338C12.5545 26.1246 13.7839 26.625 15.0658 26.625C16.3476 26.625 17.577 26.1246 18.4834 25.2338C19.3899 24.343 19.8991 23.1348 19.8991 21.875C19.8991 20.6152 19.3899 19.407 18.4834 18.5162C17.577 17.6254 16.3476 17.125 15.0658 17.125ZM15.0658 31.375C13.7839 31.375 12.5545 31.8754 11.6481 32.7662C10.7416 33.657 10.2324 34.8652 10.2324 36.125C10.2324 37.3848 10.7416 38.593 11.6481 39.4838C12.5545 40.3746 13.7839 40.875 15.0658 40.875C16.3476 40.875 17.577 40.3746 18.4834 39.4838C19.3899 38.593 19.8991 37.3848 19.8991 36.125C19.8991 34.8652 19.3899 33.657 18.4834 32.7662C17.577 31.8754 16.3476 31.375 15.0658 31.375ZM44.0658 12.375C45.3476 12.375 46.577 11.8746 47.4834 10.9838C48.3899 10.093 48.8991 8.88478 48.8991 7.625C48.8991 6.36522 48.3899 5.15704 47.4834 4.26624C46.577 3.37545 45.3476 2.875 44.0658 2.875C42.7839 2.875 41.5545 3.37545 40.6481 4.26624C39.7416 5.15704 39.2324 6.36522 39.2324 7.625C39.2324 8.88478 39.7416 10.093 40.6481 10.9838C41.5545 11.8746 42.7839 12.375 44.0658 12.375ZM29.5658 31.375C28.2839 31.375 27.0545 31.8754 26.1481 32.7662C25.2416 33.657 24.7324 34.8652 24.7324 36.125C24.7324 37.3848 25.2416 38.593 26.1481 39.4838C27.0545 40.3746 28.2839 40.875 29.5658 40.875C30.8476 40.875 32.077 40.3746 32.9834 39.4838C33.8899 38.593 34.3991 37.3848 34.3991 36.125C34.3991 34.8652 33.8899 33.657 32.9834 32.7662C32.077 31.8754 30.8476 31.375 29.5658 31.375ZM44.0658 31.375C42.7839 31.375 41.5545 31.8754 40.6481 32.7662C39.7416 33.657 39.2324 34.8652 39.2324 36.125C39.2324 37.3848 39.7416 38.593 40.6481 39.4838C41.5545 40.3746 42.7839 40.875 44.0658 40.875C45.3476 40.875 46.577 40.3746 47.4834 39.4838C48.3899 38.593 48.8991 37.3848 48.8991 36.125C48.8991 34.8652 48.3899 33.657 47.4834 32.7662C46.577 31.8754 45.3476 31.375 44.0658 31.375ZM44.0658 17.125C42.7839 17.125 41.5545 17.6254 40.6481 18.5162C39.7416 19.407 39.2324 20.6152 39.2324 21.875C39.2324 23.1348 39.7416 24.343 40.6481 25.2338C41.5545 26.1246 42.7839 26.625 44.0658 26.625C45.3476 26.625 46.577 26.1246 47.4834 25.2338C48.3899 24.343 48.8991 23.1348 48.8991 21.875C48.8991 20.6152 48.3899 19.407 47.4834 18.5162C46.577 17.6254 45.3476 17.125 44.0658 17.125ZM29.5658 17.125C28.2839 17.125 27.0545 17.6254 26.1481 18.5162C25.2416 19.407 24.7324 20.6152 24.7324 21.875C24.7324 23.1348 25.2416 24.343 26.1481 25.2338C27.0545 26.1246 28.2839 26.625 29.5658 26.625C30.8476 26.625 32.077 26.1246 32.9834 25.2338C33.8899 24.343 34.3991 23.1348 34.3991 21.875C34.3991 20.6152 33.8899 19.407 32.9834 18.5162C32.077 17.6254 30.8476 17.125 29.5658 17.125ZM29.5658 2.875C28.2839 2.875 27.0545 3.37545 26.1481 4.26624C25.2416 5.15704 24.7324 6.36522 24.7324 7.625C24.7324 8.88478 25.2416 10.093 26.1481 10.9838C27.0545 11.8746 28.2839 12.375 29.5658 12.375C30.8476 12.375 32.077 11.8746 32.9834 10.9838C33.8899 10.093 34.3991 8.88478 34.3991 7.625C34.3991 6.36522 33.8899 5.15704 32.9834 4.26624C32.077 3.37545 30.8476 2.875 29.5658 2.875Z" fill="#323232"/>
</svg>
