<svg width="54" height="53" viewBox="0 0 54 53" fill="none" xmlns="http://www.w3.org/2000/svg">
<path d="M49.1491 27.3883V9.16659C49.1491 8.01731 48.6838 6.91511 47.8555 6.10246C47.0272 5.2898 45.9038 4.83325 44.7324 4.83325H9.39909C6.96992 4.83325 4.98242 6.78325 4.98242 9.16659V48.1666L13.8158 39.4999H21.0812C22.1424 42.9913 24.449 45.9913 27.5792 47.9514C30.7094 49.9114 34.4541 50.7007 38.1286 50.1748C41.8031 49.6488 45.162 47.8429 47.591 45.0871C50.02 42.3314 51.357 38.8099 51.3574 35.1666C51.3574 32.3283 50.5403 29.6633 49.1491 27.3883ZM13.8158 13.4999H40.3158V17.8333H13.8158V13.4999ZM35.8991 19.9999C31.7033 19.9999 27.8828 21.6683 25.1003 24.3333H13.8158V19.9999H35.8991ZM13.8158 26.4999H23.2233C22.2958 27.7999 21.5449 29.2733 21.1033 30.8333H13.8158V26.4999ZM35.8991 45.6749C29.9808 45.6749 25.1887 40.9733 25.1887 35.1666C25.1887 29.3599 29.9808 24.6583 35.8991 24.6583C41.7953 24.6583 46.6095 29.3599 46.6095 35.1666C46.6095 40.9733 41.7953 45.6749 35.8991 45.6749ZM37.0033 34.7766L42.3916 37.8316L40.7353 40.6483L33.6908 36.6616V28.6666H37.0033V34.7766Z" fill="#323232"/>
</svg>
