<svg width="61" height="61" viewBox="0 0 61 61" fill="none" xmlns="http://www.w3.org/2000/svg">
<path d="M10.5659 20.5V15.5C10.5659 14.1739 11.0927 12.9021 12.0304 11.9645C12.9681 11.0268 14.2398 10.5 15.5659 10.5H20.5659M10.5659 40.5V45.5C10.5659 46.8261 11.0927 48.0979 12.0304 49.0355C12.9681 49.9732 14.2398 50.5 15.5659 50.5H20.5659M40.5659 10.5H45.5659C46.892 10.5 48.1638 11.0268 49.1015 11.9645C50.0391 12.9021 50.5659 14.1739 50.5659 15.5V20.5M40.5659 50.5H45.5659C46.892 50.5 48.1638 49.9732 49.1015 49.0355C50.0391 48.0979 50.5659 46.8261 50.5659 45.5V40.5M23.0659 25.5H23.0909M38.0659 25.5H38.0909M24.3159 38C25.1306 38.8315 26.103 39.4921 27.1762 39.943C28.2494 40.394 29.4018 40.6263 30.5659 40.6263C31.73 40.6263 32.8824 40.394 33.9556 39.943C35.0288 39.4921 36.0012 38.8315 36.8159 38" stroke="#323232" stroke-width="4" stroke-linecap="round" stroke-linejoin="round"/>
</svg>
